<svg width="40" height="40" viewBox="0 0 40 40" fill="none" xmlns="http://www.w3.org/2000/svg">
<path opacity="0.2" d="M20 40C31.0457 40 40 31.0457 40 20C40 8.9543 31.0457 0 20 0C8.9543 0 0 8.9543 0 20C0 31.0457 8.9543 40 20 40Z" fill="#32A4BE"/>
<path opacity="0.2" d="M20 40C31.0457 40 40 31.0457 40 20C40 8.9543 31.0457 0 20 0C8.9543 0 0 8.9543 0 20C0 31.0457 8.9543 40 20 40Z" fill="#C2A633"/>
<mask id="mask0_27_91256" style="mask-type:luminance" maskUnits="userSpaceOnUse" x="0" y="0" width="40" height="40">
<path d="M20 40C31.0457 40 40 31.0457 40 20C40 8.9543 31.0457 0 20 0C8.9543 0 0 8.9543 0 20C0 31.0457 8.9543 40 20 40Z" fill="white"/>
</mask>
<g mask="url(#mask0_27_91256)">
<path fill-rule="evenodd" clip-rule="evenodd" d="M20.331 11.978H14.8702V19.2308H11.5386V21.6484H14.8702V28.9011H20.331C23.2134 28.9011 23.8344 28.5992 25.0766 27.9955C25.173 27.9486 25.2732 27.9 25.3785 27.8495C26.8397 27.1484 27.9753 26.1612 28.7852 24.8879C29.5951 23.6146 30.0001 22.1319 30.0001 20.4396C30.0001 18.7472 29.5951 17.2645 28.7852 15.9912C27.9753 14.7179 26.8397 13.7308 25.3785 13.0297C23.9172 12.3286 22.2348 11.978 20.331 11.978ZM18.9282 21.6484V25.6857H20.1306C21.8841 25.6857 23.2826 25.2143 24.3264 24.2714C25.3701 23.3286 25.892 22.0513 25.892 20.4396C25.892 18.8278 25.3701 17.5506 24.3264 16.6077C23.2826 15.6648 21.8841 15.1934 20.1306 15.1934H18.9282V19.2308H22.8109V21.6484H18.9282Z" fill="#C2A633"/>
</g>
</svg>
