<svg width="40" height="40" viewBox="0 0 40 40" fill="none" xmlns="http://www.w3.org/2000/svg">
<path opacity="0.2" d="M20 40C31.0457 40 40 31.0457 40 20C40 8.9543 31.0457 0 20 0C8.9543 0 0 8.9543 0 20C0 31.0457 8.9543 40 20 40Z" fill="#F3BA2F"/>
<path fill-rule="evenodd" clip-rule="evenodd" d="M15.819 18.2812L20.0022 14.0997L24.1873 18.2846L26.62 15.8502L20.0022 9.23096L13.3845 15.8485L15.819 18.2812ZM9.23096 20.0006L11.6645 17.5671L14.0981 20.0006L11.6645 22.434L9.23096 20.0006ZM20.0022 25.9024L15.819 21.7192L13.3811 24.1502L13.3845 24.1536L20.0022 30.7694L26.62 24.1502L26.6217 24.1485L24.1872 21.7175L20.0022 25.9024ZM25.9023 20.0012L28.3359 17.5677L30.7694 20.0012L28.3359 22.4346L25.9023 20.0012ZM20.0022 17.5292L22.4707 19.9993H22.4724L22.4707 20.001L20.0022 22.4711L17.5338 20.0044L17.5304 19.9993L17.5338 19.9959L17.9659 19.5638L18.1768 19.3546L20.0022 17.5292Z" fill="#F3BA2F"/>
</svg>
