<svg width="41" height="40" viewBox="0 0 41 40" fill="none" xmlns="http://www.w3.org/2000/svg">
<path opacity="0.2" d="M39.9 24.8385C37.2287 35.5529 26.3762 42.0729 15.6606 39.4016C4.94999 36.7304 -1.57064 25.8779 1.10124 15.1641C3.77124 4.4485 14.6231 -2.07275 25.3356 0.598497C36.0506 3.26975 42.5706 14.1235 39.8994 24.8385H39.9Z" fill="#F7931A"/>
<path fill-rule="evenodd" clip-rule="evenodd" d="M26.5237 17.6763C26.7934 15.8709 25.4188 14.9004 23.5392 14.253L24.1489 11.8074L22.6599 11.4364L22.0663 13.8175C21.6754 13.72 21.2734 13.628 20.874 13.5369L21.4719 11.14L19.9841 10.769L19.374 13.2138C19.05 13.14 18.732 13.0671 18.4234 12.9903L18.4251 12.9827L16.3721 12.4701L15.9761 14.0601C15.9761 14.0601 17.0806 14.3132 17.0573 14.3289C17.6602 14.4794 17.7696 14.8784 17.7509 15.1947L17.0564 17.9807C17.098 17.9913 17.1518 18.0066 17.2112 18.0303L17.0543 17.9913L16.0804 21.8941C16.0066 22.0773 15.8196 22.3521 15.3982 22.2478C15.413 22.2694 14.3162 21.9777 14.3162 21.9777L13.5771 23.6821L15.5148 24.165C15.7335 24.2199 15.9496 24.2762 16.1633 24.332C16.3017 24.3681 16.4391 24.4039 16.5756 24.4389L15.9596 26.9129L17.4465 27.2839L18.057 24.8366C18.4628 24.9469 18.8571 25.0486 19.2429 25.1445L18.6349 27.5803L20.1236 27.9513L20.7396 25.4824C23.2781 25.9628 25.1873 25.769 25.9899 23.4735C26.6373 21.6249 25.9581 20.5586 24.6225 19.8628C25.5952 19.6377 26.3278 18.9979 26.5233 17.6763H26.5237ZM23.122 22.4458C22.6994 24.1424 20.0431 23.4404 18.8288 23.1195L18.8287 23.1194C18.72 23.0907 18.6229 23.0651 18.54 23.0444L19.3574 19.7674C19.4588 19.7927 19.5827 19.8205 19.7231 19.852C20.9793 20.1339 23.5538 20.7116 23.1225 22.4458H23.122ZM19.9756 18.3314C20.9888 18.6017 23.1973 19.1909 23.5821 17.6496C23.9754 16.0728 21.8278 15.5975 20.779 15.3654C20.6611 15.3393 20.5571 15.3163 20.4721 15.2951L19.731 18.2673C19.8011 18.2848 19.8834 18.3068 19.9756 18.3314Z" fill="#F7931A"/>
</svg>
