<svg width="41" height="40" viewBox="0 0 41 40" fill="none" xmlns="http://www.w3.org/2000/svg">
<path opacity="0.2" d="M20.5 40C31.5457 40 40.5 31.0457 40.5 20C40.5 8.9543 31.5457 0 20.5 0C9.4543 0 0.5 8.9543 0.5 20C0.5 31.0457 9.4543 40 20.5 40Z" fill="#1276A7"/>
<path d="M22.9182 11.2657C21.6664 11.9783 20.9252 13.2652 20.9252 14.6222C20.9252 15.3348 21.2205 16.053 21.5902 16.6937C21.8855 17.266 22.0303 18.2649 20.9996 18.7652C20.2642 19.1916 19.302 18.9073 18.8619 18.1929C18.4217 17.6206 17.9054 17.0483 17.2405 16.6217C15.9887 15.9091 14.512 15.9091 13.2602 16.6217C12.0083 17.3343 11.269 18.6244 11.269 19.9818C11.269 21.3392 12.0045 22.6256 13.2599 23.3401C14.5117 24.0528 15.9883 24.0528 17.2402 23.3401C17.9052 22.982 18.4213 22.4134 18.7873 21.769C19.0826 21.2687 19.8943 20.6244 20.9251 21.1967C21.6605 21.6231 21.8815 22.5555 21.5156 23.2681C21.1461 23.9125 20.9251 24.627 20.9251 25.3396C20.9251 26.6985 21.6605 27.9834 22.918 28.6961C24.1698 29.4087 25.6464 29.4087 26.8983 28.6961C28.1501 27.9835 28.8914 26.6966 28.8914 25.3396C28.8914 23.9826 28.154 22.6958 26.8985 21.9813C26.2335 21.6231 25.4961 21.481 24.6863 21.481C24.0214 21.481 23.1392 21.0545 23.1392 19.9818C23.1392 19.1233 23.8042 18.4826 24.6863 18.4826C25.4218 18.4826 26.2335 18.3405 26.8985 17.9823C28.1502 17.2697 28.8914 15.9828 28.8914 14.6259C28.8914 13.269 28.154 11.9821 26.8985 11.2694C26.3079 10.9113 25.5723 10.7691 24.9076 10.7691C24.2464 10.7654 23.5053 10.9113 22.9185 11.2657" fill="#1276A7"/>
</svg>
