<svg width="41" height="40" viewBox="0 0 41 40" fill="none" xmlns="http://www.w3.org/2000/svg">
<path opacity="0.2" d="M20.5 40C31.5457 40 40.5 31.0457 40.5 20C40.5 8.9543 31.5457 0 20.5 0C9.4543 0 0.5 8.9543 0.5 20C0.5 31.0457 9.4543 40 20.5 40Z" fill="#8EFF1A"/>
<path fill-rule="evenodd" clip-rule="evenodd" d="M26.7109 19.3956C26.1336 18.9205 25.3821 18.6829 24.4565 18.6828C25.4186 17.8149 25.6559 16.6904 25.1688 15.3089C24.996 14.807 24.7492 14.3963 24.4279 14.0761C24.1064 13.7559 23.7239 13.5294 23.2792 13.3969C22.8347 13.264 22.37 13.1944 21.8859 13.1873C21.4017 13.1802 20.8585 13.2229 20.2566 13.3154L19.5232 10.3771L17.8032 10.8065L18.5163 13.6633C18.2184 13.7376 17.7662 13.8588 17.1595 14.0268L16.4406 11.1468L14.7204 11.5763L15.4538 14.5147C15.21 14.5838 14.8498 14.678 14.3733 14.797L12.0024 15.3764L12.4797 17.2887L13.7195 16.9792C14.2855 16.8379 14.6828 17.0195 14.9115 17.5238L15.7469 20.8703C15.8214 20.8517 15.8819 20.8409 15.9286 20.8375L15.7498 20.8821L16.9198 25.5693C16.9592 25.9805 16.7928 26.2328 16.4204 26.3257L15.1808 26.6353L15.3671 28.8556L17.6011 28.2978C17.7426 28.2625 17.9477 28.2133 18.2168 28.1499C18.4858 28.0869 18.6872 28.0386 18.8213 28.0052L19.5635 30.9784L21.284 30.5488L20.5505 27.6105C20.8652 27.5404 21.3204 27.4308 21.9161 27.2821L22.6466 30.2086L24.3666 29.7791L23.6245 26.8059C24.2275 26.6223 24.7547 26.4291 25.2059 26.2252C25.6574 26.0214 26.0764 25.7745 26.4626 25.4839C26.8488 25.1935 27.1531 24.8758 27.3756 24.5313C27.5982 24.1869 27.7518 23.7809 27.8372 23.3136C27.922 22.8464 27.9219 22.3303 27.836 21.7653C27.6636 20.6608 27.2884 19.8708 26.7109 19.3956ZM17.7174 16.1167L17.7175 16.1167L18.6111 19.6959C18.6484 19.6866 18.7772 19.6566 18.998 19.6056C19.2188 19.5545 19.3918 19.5113 19.5175 19.4759C19.6431 19.4404 19.8274 19.386 20.0703 19.313C20.3132 19.2401 20.5126 19.1675 20.6687 19.0955C20.8247 19.0236 21.0058 18.933 21.2118 18.8237C21.4178 18.7145 21.5806 18.5975 21.6997 18.4729C21.8189 18.3482 21.9307 18.2087 22.0346 18.0548C22.1384 17.9009 22.2018 17.7261 22.224 17.5306C22.2463 17.3351 22.2303 17.1284 22.1759 16.9108C22.1119 16.6543 22.0086 16.4386 21.8659 16.2637C21.7235 16.0887 21.5692 15.9537 21.403 15.859C21.2371 15.7642 21.0313 15.6999 20.7854 15.6664C20.5398 15.6328 20.3188 15.6198 20.123 15.6275C19.9272 15.6351 19.6905 15.6612 19.4128 15.7057C19.1351 15.7503 18.9167 15.7945 18.7575 15.8383C18.5984 15.8822 18.3983 15.9362 18.1572 16.0006C17.9163 16.0649 17.7697 16.1036 17.7175 16.1167L17.7175 16.1166L17.7174 16.1166L17.7174 16.1167ZM24.2387 23.4202C24.3173 23.2602 24.3696 23.0819 24.3958 22.8853C24.422 22.6887 24.408 22.482 24.3536 22.2641C24.2837 21.9843 24.1658 21.7494 23.9995 21.5598C23.8335 21.37 23.6512 21.2259 23.4524 21.1266C23.2536 21.0276 23.0097 20.9626 22.7212 20.9315C22.4323 20.9003 22.1707 20.8893 21.9357 20.8984C21.7004 20.9075 21.4161 20.9415 21.0829 21.0001C20.7492 21.0585 20.4893 21.1112 20.3031 21.1576C20.1169 21.2041 19.8778 21.2677 19.5855 21.349C19.2932 21.4304 19.1173 21.4783 19.0578 21.4932L20.0417 25.434C20.1013 25.4191 20.2394 25.3867 20.4565 25.3364C20.6734 25.2863 20.8527 25.2438 20.9942 25.2084C21.1357 25.1731 21.3317 25.1179 21.5819 25.0433C21.8323 24.9683 22.0462 24.8984 22.2237 24.8334C22.4014 24.7683 22.6054 24.6825 22.8361 24.5753C23.0662 24.4682 23.2594 24.3624 23.4152 24.2572C23.5708 24.1523 23.7275 24.0266 23.8846 23.8799C24.0418 23.7335 24.1598 23.5801 24.2387 23.4202Z" fill="#82FF00"/>
</svg>
