<svg width="40" height="40" viewBox="0 0 40 40" fill="none" xmlns="http://www.w3.org/2000/svg">
<path opacity="0.2" fill-rule="evenodd" clip-rule="evenodd" d="M20 40C31.0457 40 40 31.0457 40 20C40 8.9543 31.0457 0 20 0C8.9543 0 0 8.9543 0 20C0 31.0457 8.9543 40 20 40Z" fill="#5790FF"/>
<path fill-rule="evenodd" clip-rule="evenodd" d="M18.2474 10.769C19.3458 10.769 20.4402 10.769 21.5386 10.769C21.474 11.5121 21.4053 12.2592 21.3447 13.0022C22.6249 13.0951 23.8727 13.507 24.9953 14.1168C24.5107 15.3363 24.0221 16.5559 23.5335 17.7754C22.5885 16.9718 21.3447 16.5276 20.105 16.5437C19.794 16.5518 19.471 16.6124 19.2125 16.7901C19.0429 16.9072 18.9177 17.0889 18.8814 17.2908C18.8531 17.4523 18.8612 17.6341 18.95 17.7794C19.051 17.941 19.2287 18.0379 19.4064 18.0985C19.7698 18.2277 20.1615 18.2358 20.5411 18.2761C21.4336 18.3852 22.3301 18.5386 23.1741 18.8577C23.8283 19.108 24.4542 19.4836 24.9024 20.0328C25.3264 20.5376 25.5728 21.1756 25.6657 21.8298C25.7747 22.585 25.7424 23.3684 25.5082 24.1033C25.3264 24.6929 25.0155 25.2421 24.6117 25.7065C23.7758 26.6757 22.5481 27.2572 21.2882 27.4066C21.3286 28.2022 21.377 28.9937 21.4215 29.7892C20.3796 29.7892 19.3418 29.7892 18.3039 29.7892C18.3443 29.0017 18.3968 28.2143 18.4332 27.4268C17.5972 27.3985 16.7694 27.2128 15.99 26.918C15.2349 26.6313 14.5161 26.2517 13.8457 25.8075C14.3384 24.5395 14.831 23.2715 15.3277 21.9994C15.8891 22.4719 16.4867 22.9121 17.1409 23.2472C17.8436 23.6066 18.623 23.8368 19.4144 23.8449C19.79 23.8489 20.1777 23.8287 20.533 23.6995C20.7511 23.6187 20.9651 23.4774 21.0621 23.2553C21.163 23.0211 21.1549 22.7263 21.0015 22.5163C20.8924 22.375 20.739 22.278 20.5775 22.2094C20.3594 22.1206 20.1333 22.0721 19.9031 22.0358C19.055 21.8985 18.203 21.7854 17.3832 21.5189C16.725 21.3048 16.0829 21.006 15.5579 20.5456C15.2268 20.2589 14.9522 19.9076 14.7583 19.5118C14.4676 18.9223 14.3586 18.256 14.3666 17.6018C14.3666 16.8708 14.5161 16.1278 14.8795 15.4857C15.1945 14.9123 15.675 14.4438 16.2162 14.0844C16.8704 13.6524 17.6013 13.3576 18.3443 13.1193C18.312 12.3359 18.2797 11.5525 18.2474 10.769Z" fill="#5790FF"/>
</svg>
