<svg width="41" height="40" viewBox="0 0 41 40" fill="none" xmlns="http://www.w3.org/2000/svg">
<path opacity="0.2" d="M40.289 20.0005C40.289 30.988 31.3821 39.8952 20.3946 39.8952C9.40707 39.8952 0.5 30.988 0.5 20.0005C0.5 9.01303 9.40707 0.105957 20.3946 0.105957C31.3819 0.105957 40.289 9.01303 40.289 20.0005Z" fill="#3CC8C8"/>
<path fill-rule="evenodd" clip-rule="evenodd" d="M20.9127 10.1519C21.1799 9.64434 20.5659 9.02977 20.063 9.29469C19.6538 9.45938 19.55 10.0576 19.8684 10.3603C20.169 10.6757 20.7575 10.5657 20.9127 10.1519ZM15.3143 10.3758C15.3455 10.0394 14.9587 9.7567 14.6532 9.88374C14.2278 9.99819 14.1807 10.6748 14.5933 10.8362C14.9047 11.0097 15.3467 10.741 15.3143 10.3758ZM25.7331 10.8464C25.2557 10.7882 25.1801 10.0299 25.6398 9.87721C25.9963 9.70157 26.3234 10.0309 26.3756 10.3723C26.3008 10.6638 26.0592 10.9307 25.7331 10.8464ZM17.0452 12.9685C17.1238 12.3692 16.3949 11.8832 15.8841 12.2095C15.4057 12.4566 15.3399 13.1938 15.774 13.5151C16.223 13.9242 17.0187 13.5736 17.0452 12.9685ZM23.6819 12.5558C23.9098 11.9625 24.8332 11.9446 25.0926 12.5221C25.349 12.9715 25.0337 13.528 24.5768 13.6808C23.9718 13.7949 23.397 13.1342 23.6819 12.5558ZM20.3461 12.7226C19.8664 12.7573 19.4066 13.1372 19.4115 13.6471C19.3842 14.0638 19.6789 14.4041 20.0288 14.5777C20.064 14.5798 20.0997 14.5827 20.1356 14.5856L20.1357 14.5856C20.3333 14.6014 20.5386 14.6179 20.7165 14.5172C21.1762 14.3118 21.4021 13.6957 21.1477 13.2483C21.0112 12.924 20.6644 12.787 20.3461 12.7226ZM11.3663 14.3902C11.8329 14.1004 12.4625 14.6292 12.2858 15.1412C12.1885 15.5841 11.5991 15.7643 11.2622 15.4815C10.9026 15.2166 10.9596 14.5797 11.3663 14.3902ZM29.6443 14.9398C29.6915 14.4349 29.0382 14.0787 28.6423 14.3892C28.236 14.6412 28.2802 15.3138 28.7131 15.5103C29.1061 15.7474 29.6709 15.4002 29.6443 14.9398ZM21.674 15.3059C22.3273 15.0688 23.1033 15.3525 23.4756 15.9409C23.9668 16.6601 23.7055 17.7554 22.9432 18.1681C22.1534 18.6562 21.0001 18.2425 20.7084 17.3516C20.3773 16.554 20.8597 15.5559 21.674 15.3059ZM19.8891 16.0769C19.5394 15.3287 18.5649 15.0391 17.8409 15.3843C17.0692 15.7325 16.7142 16.7594 17.114 17.5154C17.4705 18.2973 18.5099 18.6177 19.2466 18.1951C19.9824 17.8191 20.3007 16.8051 19.8891 16.0769ZM14.0028 16.7097C14.0579 16.2385 14.498 15.9319 14.942 15.9002C15.4204 15.9585 15.8025 16.3337 15.8545 16.8228C15.8232 17.3069 15.4528 17.7801 14.9449 17.7772C14.386 17.8258 13.8961 17.2643 14.0028 16.7097ZM26.684 16.8221C26.7095 16.1564 25.9129 15.6653 25.3392 16.0026C24.7233 16.296 24.677 17.2663 25.2704 17.6108C25.8417 18.0245 26.7233 17.5275 26.684 16.8221ZM16.281 18.4886C16.952 18.3022 17.7192 18.6216 18.0482 19.2446C18.4087 19.8716 18.2614 20.7427 17.7015 21.2026C16.9835 21.8772 15.6592 21.6064 15.277 20.6857C14.8379 19.8418 15.3713 18.7108 16.281 18.4886ZM25.3205 19.1509C24.9698 18.5506 24.2036 18.2967 23.5513 18.4851C22.6348 18.7386 22.1495 19.9132 22.6318 20.7444C23.0296 21.5478 24.1496 21.8177 24.8726 21.3038C25.5628 20.8613 25.7841 19.8374 25.3205 19.1509ZM11.9655 19.2684C12.5451 19.0469 13.1875 19.693 12.9527 20.2734C12.8093 20.8022 12.0715 20.9976 11.6904 20.6078C11.2445 20.2417 11.4096 19.4271 11.9655 19.2684ZM28.5022 19.1692C28.0098 19.196 27.6584 19.6256 27.6752 20.1107C27.7714 20.3369 27.8883 20.573 28.1162 20.69C28.6024 20.9609 29.2901 20.5691 29.2537 19.9926C29.2851 19.5561 28.8992 19.2327 28.5022 19.1692ZM9.11572 19.5531C9.46441 19.3994 9.89572 19.7046 9.8161 20.0958C9.79741 20.5386 9.1501 20.7089 8.91229 20.3389C8.70218 20.0819 8.82795 19.6856 9.11572 19.5531ZM31.8382 19.7843C31.741 19.4946 31.3471 19.3677 31.1015 19.5442C30.6929 19.7644 30.8531 20.5264 31.3481 20.4808C31.7007 20.5343 32.0032 20.1008 31.8382 19.7843ZM18.1749 21.6702C19.0925 21.4292 20.0788 22.202 20.0846 23.1564C20.1444 24.1207 19.173 24.9758 18.2338 24.7531C17.5078 24.635 16.9381 23.9286 16.9617 23.1876C16.9597 22.4789 17.4892 21.8201 18.1749 21.6702ZM23.7409 23.1684C23.7556 22.192 22.7399 21.4053 21.8086 21.6682C21.2565 21.8068 20.789 22.2665 20.667 22.8318C20.4254 23.68 21.0639 24.6404 21.9293 24.7534C22.849 24.9412 23.79 24.1149 23.7409 23.1684ZM14.8026 22.2557C15.447 22.1446 16.0512 22.8708 15.7898 23.4889C15.5992 24.1475 14.6503 24.3262 14.2307 23.7882C13.7386 23.2715 14.106 22.327 14.8026 22.2557ZM26.6947 23.1736C26.7389 22.5437 26.0336 22.0416 25.459 22.2847C24.7645 22.5076 24.6486 23.5771 25.2851 23.9405C25.847 24.3453 26.7178 23.8671 26.6947 23.1736ZM28.4375 25.3024C28.2125 24.8787 28.6212 24.3172 29.0869 24.3956C29.3059 24.3919 29.4627 24.5563 29.6044 24.705L29.6292 24.731L29.6345 24.7739C29.6646 25.0155 29.6991 25.2925 29.5045 25.475C29.2243 25.8332 28.5897 25.731 28.4375 25.3024ZM12.328 25.1714C12.4259 24.6574 11.7996 24.2209 11.3643 24.5136C10.9498 24.727 10.935 25.3937 11.3357 25.6278C11.7091 25.8857 12.276 25.6259 12.328 25.1714ZM19.9628 25.4651C20.5326 25.2111 21.2585 25.7122 21.2045 26.3461C21.2467 27.0466 20.3489 27.5317 19.7918 27.111C19.173 26.7498 19.2762 25.6872 19.9628 25.4651ZM17.0727 27.1397C17.1169 26.5911 16.4656 26.1456 15.9803 26.4036C15.6384 26.5326 15.499 26.9136 15.493 27.2557C15.6099 27.5695 15.8476 27.8996 16.2121 27.9075C16.6522 27.9741 17.0874 27.5902 17.0727 27.1397ZM24.0473 26.4115C24.5464 26.1 25.2557 26.5474 25.2085 27.1341C25.2213 27.7473 24.4197 28.14 23.955 27.7372C23.5051 27.4215 23.5601 26.6625 24.0473 26.4115ZM25.85 29.0892C25.4895 29.1666 25.2282 29.5754 25.4502 29.9146C25.6781 30.3086 26.3432 30.1677 26.3854 29.7083C26.4463 29.3689 26.1398 29.1488 25.85 29.0892ZM14.3143 29.62C14.4027 29.3511 14.6168 29.0839 14.9302 29.1538C15.387 29.1865 15.5226 29.882 15.1228 30.0963C14.7632 30.3412 14.3461 30.0059 14.3143 29.62ZM20.6199 29.5486C20.2839 29.3372 19.7742 29.5307 19.6867 29.9285C19.5269 30.3304 19.9107 30.8162 20.3361 30.7658C20.565 30.7717 20.7418 30.6071 20.8793 30.4424C20.9061 30.3313 20.9333 30.2201 20.9638 30.109L20.9619 30.102C20.9053 29.8902 20.8395 29.6438 20.6199 29.5486Z" fill="#3CC8C8"/>
</svg>
