<svg width="41" height="40" viewBox="0 0 41 40" fill="none" xmlns="http://www.w3.org/2000/svg">
<path opacity="0.2" d="M20.5 40C31.5457 40 40.5 31.0457 40.5 20C40.5 8.9543 31.5457 0 20.5 0C9.4543 0 0.5 8.9543 0.5 20C0.5 31.0457 9.4543 40 20.5 40Z" fill="#45525B"/>
<path fill-rule="evenodd" clip-rule="evenodd" d="M11.269 9.23096L19.6259 30.7694L31.269 16.2382L27.1469 12.2241L11.269 9.23096ZM14.2317 10.9442L25.6765 13.102L21.234 16.8936L14.2317 10.9442ZM13.438 11.7456L20.7357 17.9461L19.5946 27.6149L13.438 11.7456ZM26.8914 13.5427L29.3202 15.908L22.6775 17.1404L26.8914 13.5427ZM21.792 18.459L29.1479 17.0948L20.7106 27.625L21.792 18.459Z" fill="#C63127"/>
</svg>
