<svg width="41" height="40" viewBox="0 0 41 40" fill="none" xmlns="http://www.w3.org/2000/svg">
<path opacity="0.2" d="M40.3915 20.0005C40.3915 30.988 31.4846 39.8952 20.4972 39.8952C9.50961 39.8952 0.602539 30.988 0.602539 20.0005C0.602539 9.01303 9.50961 0.105957 20.4972 0.105957C31.4845 0.105957 40.3915 9.01303 40.3915 20.0005Z" fill="#00A478"/>
<path d="M18.4569 19.6519V16.1714H13.7363V13.1206H26.9275V16.2144H22.2069V19.6519H18.4569Z" fill="#00A478"/>
<path fill-rule="evenodd" clip-rule="evenodd" d="M11.707 20.0386C11.707 18.8784 15.5011 17.9331 20.2217 17.9331C24.9423 17.9331 28.7364 18.8784 28.7364 20.0386C28.7364 21.1987 24.9423 22.144 20.2217 22.144C15.5011 22.144 11.707 21.1987 11.707 20.0386ZM28.0306 20.0386C27.7217 19.6089 25.1629 18.2769 20.2217 18.2769C15.2806 18.2769 12.7217 19.5659 12.4129 20.0386C12.7217 20.4683 15.2806 21.1128 20.2217 21.1128C25.207 21.1128 27.7217 20.4683 28.0306 20.0386Z" fill="#00A478"/>
<path d="M22.2069 20.7261V18.3198C21.5892 18.2769 20.9274 18.2339 20.2657 18.2339C19.648 18.2339 19.0745 18.2339 18.501 18.2769V20.6831C19.0304 20.6831 19.648 20.7261 20.2657 20.7261C20.9274 20.769 21.5892 20.769 22.2069 20.7261Z" fill="#00A478"/>
<path d="M20.2217 22.144C19.6041 22.144 19.0306 22.144 18.457 22.1011V28.5034H22.1629V22.0581C21.5453 22.1011 20.8835 22.144 20.2217 22.144Z" fill="#00A478"/>
</svg>
