<svg width="41" height="40" viewBox="0 0 41 40" fill="none" xmlns="http://www.w3.org/2000/svg">
<path opacity="0.2" d="M40.3915 20.0005C40.3915 30.988 31.4846 39.8952 20.4972 39.8952C9.50961 39.8952 0.602539 30.988 0.602539 20.0005C0.602539 9.01303 9.50961 0.105957 20.4972 0.105957C31.4845 0.105957 40.3915 9.01303 40.3915 20.0005Z" fill="#505050"/>
<g opacity="0.8">
<path d="M20.4334 10.769L20.3105 11.1867V23.3064L20.4334 23.4291L26.0593 20.1037L20.4334 10.769Z" fill="white"/>
<path d="M20.4334 10.769L14.8076 20.1037L20.4334 23.4291V17.5466V10.769Z" fill="white"/>
<path d="M20.4335 25.2593L20.3643 25.3437V29.661L20.4335 29.8632L26.0627 21.9355L20.4335 25.2593Z" fill="white"/>
<path d="M20.4334 29.8633V25.2593L14.8076 21.9355L20.4334 29.8633Z" fill="white"/>
<path d="M20.4336 23.4288L26.0593 20.1035L20.4336 17.5464V23.4288Z" fill="white"/>
<path d="M14.8076 20.1035L20.4334 23.4289V17.5464L14.8076 20.1035Z" fill="white"/>
</g>
</svg>
