<svg width="41" height="40" viewBox="0 0 41 40" fill="none" xmlns="http://www.w3.org/2000/svg">
<path opacity="0.2" d="M20.5 40C31.5457 40 40.5 31.0457 40.5 20C40.5 8.9543 31.5457 0 20.5 0C9.4543 0 0.5 8.9543 0.5 20C0.5 31.0457 9.4543 40 20.5 40Z" fill="#017F04"/>
<path d="M22.2016 23.1123L21.1198 19.8077L22.4715 18.0095L21.8366 16.0668L21.7948 16.0355L20.4643 17.8056L18.6478 12.2568L15.0833 14.5716L17.4504 21.8151L16.4036 23.2077L17.0591 25.2098L18.1051 23.8184L19.5002 28.0874L28.9867 21.9267L28.1237 19.2664L22.2016 23.1123Z" fill="#017F04"/>
<path fill-rule="evenodd" clip-rule="evenodd" d="M20.5 33.8461C28.147 33.8461 34.3461 27.647 34.3461 20C34.3461 12.3529 28.147 6.15381 20.5 6.15381C12.8529 6.15381 6.65381 12.3529 6.65381 20C6.65381 27.647 12.8529 33.8461 20.5 33.8461Z" stroke="#017F04"/>
</svg>
