<svg width="189" height="30" viewBox="0 0 189 30" fill="none" xmlns="http://www.w3.org/2000/svg">
<path d="M36.1201 4.88696H42.7597C45.0104 4.88696 49.0195 4.88696 51.6219 8.62876C53.0004 10.5278 53.4646 12.666 53.4646 14.8604C53.4646 20.3324 50.7567 24.9393 43.1395 24.9393H36.1201V4.894V4.88696ZM41.2405 20.4379H43.4349C47.2541 20.4379 48.3372 17.7863 48.3372 14.9378C48.3372 13.7984 48.0911 12.3635 47.3596 11.2241C46.7617 10.3309 45.7348 9.38134 43.456 9.38134H41.2334V20.4379H41.2405Z" fill="#112855"/>
<path d="M60.1187 22.0345L59.0636 24.9323H53.5635L61.6098 4.88696H65.647L73.6088 24.9323H68.0524L67.0747 22.0345H60.1116H60.1187ZM61.5253 17.9692H65.7243L63.6635 11.1116H63.5791L61.5183 17.9692H61.5253Z" fill="#112855"/>
<path d="M75.6689 4.88696H80.7893V24.9323H75.6689V4.88696Z" fill="#112855"/>
<path d="M84.5596 4.88696H89.6799V20.4379H95.6162V24.9323H84.5596V4.88696Z" fill="#112855"/>
<path d="M99.8644 17.6456L93.8789 4.88696H99.4353L102.418 12.9332L105.428 4.88696H110.928L104.992 17.6456V24.9323H99.8714V17.6456H99.8644Z" fill="#112855"/>
<path d="M120.831 10.7387C120.725 10.0635 120.556 8.79041 118.988 8.79041C118.095 8.79041 117.23 9.41639 117.23 10.3589C117.23 11.5475 117.771 11.7937 121.372 13.4184C125.114 15.0994 126.057 16.8296 126.057 19.1648C126.057 22.0907 124.376 25.312 119.065 25.312C113.27 25.312 111.835 21.521 111.835 18.9467V18.2996H116.927C116.927 20.6277 118.362 21.0357 119.016 21.0357C120.233 21.0357 120.964 20.0369 120.964 19.1085C120.964 17.7792 120.127 17.4556 117.033 16.1544C115.626 15.5847 112.13 14.178 112.13 10.4081C112.13 6.63817 115.788 4.5 119.15 4.5C121.126 4.5 123.264 5.23148 124.566 6.77884C125.754 8.2418 125.839 9.59925 125.895 10.7316H120.831V10.7387Z" fill="#112855"/>
<path d="M128.497 4.88696H135.052C138.766 4.88696 140.144 5.45667 141.228 6.34992C142.796 7.65111 143.584 9.62751 143.584 11.6602C143.584 13.6928 142.747 15.831 141.474 16.9142C140.095 18.0817 138.738 18.6514 135.622 18.6514H133.399V24.9393H128.497V4.894V4.88696ZM133.399 14.15H135.488C136.466 14.15 138.689 14.15 138.689 11.7375C138.689 9.32507 136.41 9.38134 135.305 9.38134H133.406V14.15H133.399Z" fill="#112855"/>
<path d="M145.729 4.88696H150.85V24.9323H145.729V4.88696Z" fill="#112855"/>
<path d="M154.479 4.88696H158.897L166.647 17.4839L166.704 17.4276L166.486 4.88696H171.388V24.9323H166.943L159.304 12.7433L159.248 12.7715L159.382 24.9323H154.479V4.88696Z" fill="#112855"/>
<path d="M182.894 10.7387C182.789 10.0635 182.62 8.79041 181.051 8.79041C180.158 8.79041 179.293 9.41639 179.293 10.3589C179.293 11.5475 179.835 11.7937 183.436 13.4184C187.178 15.0994 188.12 16.8296 188.12 19.1648C188.12 22.0907 186.439 25.312 181.129 25.312C175.333 25.312 173.898 21.521 173.898 18.9467V18.2996H178.991C178.991 20.6277 180.425 21.0357 181.08 21.0357C182.296 21.0357 183.028 20.0369 183.028 19.1085C183.028 17.7792 182.191 17.4556 179.096 16.1544C177.689 15.5847 174.194 14.178 174.194 10.4081C174.194 6.63817 177.851 4.5 181.213 4.5C183.19 4.5 185.328 5.23148 186.629 6.77884C187.818 8.2418 187.902 9.59925 187.958 10.7316H182.894V10.7387Z" fill="#112855"/>
<path fill-rule="evenodd" clip-rule="evenodd" d="M6 15.4727V14.1961C6.14163 12.757 6.76348 11.3563 7.86554 10.2543L12.7305 5.3842C13.1172 4.99752 13.7495 4.99752 14.1362 5.3842L15.5418 6.78983L15.6516 6.89957C15.824 7.18697 16.0748 7.85059 15.3171 8.62918C14.0787 9.90941 10.2902 13.6769 10.2902 13.6769C9.82511 14.142 9.82511 14.8945 10.2902 15.3595L10.7552 15.8246L17.2976 9.25623L17.423 8.69711V8.66053L19.5028 10.7403C22.0319 13.2694 22.0319 17.3713 19.5028 19.9004V19.9056L14.6326 24.7705C14.2459 25.1572 13.6136 25.1572 13.2269 24.7705L11.7115 23.2551C11.5443 22.9416 11.3405 22.2518 12.1191 21.4785C13.8331 19.7698 17.0363 16.5352 17.0363 16.5352C17.5275 16.0388 17.5275 15.2341 17.0363 14.7377L16.681 14.3824C16.6496 14.351 16.6026 14.351 16.5713 14.3824L10.0759 20.9089L9.96097 21.4262C9.96097 21.4262 9.95052 21.4733 9.95052 21.4994L7.86554 19.4144C6.76348 18.3124 6.14163 16.9117 6 15.4727ZM24 4.42214C23.869 4.30662 23.7359 4.19347 23.6007 4.08276H24V4.42214Z" fill="white"/>
<path d="M17.3236 0.777255C16.7317 0.64929 14.503 0.5 14.503 0.5H4.19626C1.87685 0.5 0 2.37682 0 4.69618V25.3038C0 27.6232 1.87685 29.5 4.19626 29.5H15.772C20.3468 29.5 24.591 27.0473 26.8091 23.0484C32.461 12.8753 26.4199 2.57409 17.3236 0.777255ZM19.499 19.924L14.5296 24.8879C14.135 25.2825 13.4899 25.2825 13.0953 24.8879L11.549 23.3417C11.3784 23.0218 11.1705 22.318 11.9649 21.5289C13.7138 19.7853 16.9823 16.4849 16.9823 16.4849C17.4835 15.9784 17.4835 15.1573 16.9823 14.6508L16.6197 14.2882C16.5877 14.2562 16.5398 14.2562 16.5078 14.2882L9.88014 20.9477L9.76283 21.4755C9.76283 21.4755 9.75217 21.5235 9.75217 21.5502L7.62471 19.4228C5.04404 16.8422 5.04404 12.6566 7.62471 10.076L12.5888 5.10673C12.9833 4.71217 13.6285 4.71217 14.0231 5.10673L15.4574 6.541L15.5693 6.65297C15.7453 6.94622 16.0012 7.62337 15.2281 8.41782C13.9644 9.72412 10.0987 13.5684 10.0987 13.5684C9.6242 14.0429 9.6242 14.8107 10.0987 15.2853L10.5733 15.7598L17.2489 9.05764L17.3769 8.48713V8.4498L19.499 10.5719C22.0797 13.1525 22.0797 17.338 19.499 19.9186V19.924Z" fill="url(#paint0_linear_407_6350)"/>
<defs>
<linearGradient id="paint0_linear_407_6350" x1="14.503" y1="0.809248" x2="14.503" y2="28.9508" gradientUnits="userSpaceOnUse">
<stop stop-color="#E1517C"/>
<stop offset="1" stop-color="#F8D424"/>
</linearGradient>
</defs>
</svg>
