<svg width="253" height="40" viewBox="0 0 253 40" fill="none" xmlns="http://www.w3.org/2000/svg">
<path d="M4.44164 10.8665C5.3965 4.60334 10.4972 0 16.482 0H23.631L19.1893 29.1335C18.2345 35.3967 13.1338 40 7.14894 40H0L4.44164 10.8665Z" fill="#FCFCFC"/>
<path d="M24.2612 10.8665C25.216 4.60334 30.3167 0 36.3016 0H43.4505L39.0089 29.1335C38.054 35.3967 32.9534 40 26.9685 40H19.8195L24.2612 10.8665Z" fill="#FCFCFC"/>
<path d="M44.0807 10.8665C45.0356 4.60334 50.1362 0 56.1211 0H63.2701L58.8284 29.1335C57.8736 35.3967 52.7729 40 46.788 40H39.6391L44.0807 10.8665Z" fill="#FCFCFC"/>
<path d="M62.1266 14.9495C64.3254 14.9495 66.0017 17.0361 65.6516 19.3372L65.0811 23.087C64.6963 25.6158 62.6372 27.4747 60.2209 27.4747L62.1266 14.9495Z" fill="#FCFCFC"/>
<path d="M72.7987 3.63636C72.7987 5.42153 71.4335 6.86869 69.7495 6.86869C68.0655 6.86869 66.7004 5.42153 66.7004 3.63636C66.7004 1.8512 68.0655 0.40404 69.7495 0.40404C71.4335 0.40404 72.7987 1.8512 72.7987 3.63636Z" fill="#FCFCFC"/>
<path d="M66.042 21.8182C67.3601 21.8182 68.4834 20.8044 68.6937 19.425L71.2856 2.42424H68.9988L66.042 21.8182Z" fill="#FCFCFC"/>
<path d="M80.9355 33.3048L84.0112 19.0249H84.3511L86.5431 30.9248H90.7913L98.1151 19.0249H98.455L95.3793 33.3048H102.023L107.24 9.11944H98.5059L90.5024 22.2932H90.1626L87.8855 9.11944H79.4912L74.2744 33.3048H80.9355Z" fill="#FCFCFC"/>
<path d="M115.655 33.7741C120.617 33.7741 124.321 31.3271 125.29 27.4051H118.867C118.51 28.394 117.456 28.9974 116.08 28.9974C114.041 28.9974 112.783 27.7236 112.783 25.5615V25.3771H125.732C125.936 24.3547 126.106 22.8966 126.106 22.1088C126.106 17.3488 122.435 13.9967 117.252 13.9967C110.863 13.9967 106.496 18.6729 106.496 25.528C106.496 30.6231 110.048 33.7741 115.655 33.7741ZM113.463 21.673C113.905 19.9132 115.383 18.74 117.133 18.74C118.731 18.74 119.869 19.7288 119.869 21.1199C119.869 21.3043 119.835 21.5725 119.801 21.673H113.463Z" fill="#FCFCFC"/>
<path d="M134.843 33.3048C136.441 33.3048 137.783 33.2043 138.378 33.0367L139.38 28.3772C138.956 28.4443 138.276 28.4946 137.715 28.4946C136.475 28.4946 135.88 28.0588 135.88 27.1202C135.88 26.9694 135.914 26.7347 135.948 26.5001L137.392 19.8126H141.182L142.303 14.8012H138.463L139.448 10.3262H132.481L131.496 14.8012H128.59L127.469 19.8126H130.408L128.777 27.5225C128.658 28.0755 128.59 28.6789 128.59 29.1482C128.59 31.6958 131.02 33.3048 134.843 33.3048Z" fill="#FCFCFC"/>
<path d="M146.096 33.573C148.237 33.573 150.276 32.6009 151.16 31.0924H151.5L151.024 33.3048H157.787L160.387 21.2708C160.472 20.9021 160.54 20.2316 160.54 19.7623C160.54 16.3264 157.073 13.9967 151.976 13.9967C147.15 13.9967 143.547 16.36 142.783 20.0305H149.036C149.427 19.3098 150.31 18.9076 151.483 18.9076C152.842 18.9076 153.76 19.4774 153.76 20.3154C153.76 20.416 153.743 20.5333 153.692 20.8183L153.454 21.9077L149.342 21.9915C143.904 22.1088 140.557 24.5726 140.557 28.4778C140.557 31.4109 142.935 33.573 146.096 33.573ZM149.359 28.9471C148.118 28.9471 147.252 28.3437 147.252 27.4554C147.252 26.3995 148.254 25.6956 149.784 25.662L152.655 25.595L152.4 26.785C152.129 28.0253 150.82 28.9471 149.359 28.9471Z" fill="#FCFCFC"/>
<path d="M162.736 20.4663C162.736 22.9133 164.197 24.5894 167.307 25.6956L170.365 26.785C171.555 27.204 171.912 27.4889 171.912 28.0253C171.912 28.8298 171.113 29.2823 169.736 29.2823C168.292 29.2823 167.154 28.5616 167.069 27.5895H160.543C160.543 31.2936 164.265 33.7741 169.838 33.7741C175.31 33.7741 178.828 31.2098 178.828 27.2208C178.828 24.9078 177.519 23.4497 174.511 22.377L170.909 21.1032C169.719 20.6842 169.329 20.3657 169.329 19.7791C169.329 19.0249 170.178 18.5053 171.436 18.5053C172.744 18.5053 173.73 19.1087 173.832 19.9635H180.017C180.017 16.3767 176.602 13.9967 171.402 13.9967C166.117 13.9967 162.736 16.5276 162.736 20.4663Z" fill="#FCFCFC"/>
<path d="M184.999 39.5062L187.073 29.9527H187.412C187.99 32.0645 189.791 33.573 192.561 33.573C197.931 33.573 202.026 28.4778 202.026 21.3211C202.026 16.7957 199.511 14.1979 195.705 14.1979C193.037 14.1979 191.253 15.3879 189.995 17.1142H189.655L190.233 14.466H183.436L178.032 39.5062H184.999ZM190.794 28.1761C189.435 28.1761 188.211 27.1872 188.211 25.0922C188.211 22.1088 190.046 19.3936 192.221 19.3936C193.581 19.3936 194.821 20.3992 194.821 22.4943C194.821 25.7123 192.969 28.1761 190.794 28.1761Z" fill="#FCFCFC"/>
<path d="M210.526 12.2872C212.48 12.2872 214.077 10.7787 214.077 8.86803C214.077 6.94057 212.48 5.43213 210.526 5.43213C208.589 5.43213 206.975 6.94057 206.975 8.86803C206.975 10.7787 208.589 12.2872 210.526 12.2872ZM201.775 33.3048H208.742L212.803 14.466H205.836L201.775 33.3048Z" fill="#FCFCFC"/>
<path d="M211.328 33.3048H218.261L220.623 22.5278C220.997 20.7847 222.17 19.5277 223.75 19.5277C225.194 19.5277 226.044 20.5166 226.044 21.8071C226.044 22.1591 226.027 22.4943 225.925 22.9301L223.682 33.3048H230.598L233.062 21.8742C233.232 21.0529 233.317 20.2819 233.317 19.578C233.317 16.3767 231.227 14.1979 227.777 14.1979C225.177 14.1979 223.087 15.4884 221.83 17.6002H221.49L222.187 14.466H215.423L211.328 33.3048Z" fill="#FCFCFC"/>
<path d="M235.546 20.4663C235.546 22.9133 237.008 24.5894 240.117 25.6956L243.176 26.785C244.366 27.204 244.722 27.4889 244.722 28.0253C244.722 28.8298 243.924 29.2823 242.547 29.2823C241.103 29.2823 239.964 28.5616 239.88 27.5895H233.354C233.354 31.2936 237.076 33.7741 242.649 33.7741C248.121 33.7741 251.638 31.2098 251.638 27.2208C251.638 24.9078 250.33 23.4497 247.322 22.377L243.72 21.1032C242.53 20.6842 242.14 20.3657 242.14 19.7791C242.14 19.0249 242.989 18.5053 244.247 18.5053C245.555 18.5053 246.541 19.1087 246.643 19.9635H252.828C252.828 16.3767 249.412 13.9967 244.213 13.9967C238.928 13.9967 235.546 16.5276 235.546 20.4663Z" fill="#FCFCFC"/>
</svg>
