<svg width="40" height="17" viewBox="0 0 40 17" fill="none" xmlns="http://www.w3.org/2000/svg">
<path fill-rule="evenodd" clip-rule="evenodd" d="M18.7407 13.0152V8.31978H21.1641C22.1572 8.31978 22.9954 7.98703 23.6787 7.33078L23.8426 7.1644C25.0908 5.80568 25.0088 3.68904 23.6787 2.43199C23.0136 1.7665 22.1025 1.40602 21.1641 1.42451H17.2739V13.0152H18.7407ZM18.7409 6.89637V2.84794H21.2011C21.7296 2.84794 22.2308 3.05129 22.6044 3.42101C23.3971 4.19742 23.4154 5.49144 22.65 6.29558C22.2764 6.69303 21.7479 6.91486 21.2011 6.89637H18.7409ZM30.6847 5.70399C30.0561 5.12168 29.1997 4.82591 28.1155 4.82591C26.7216 4.82591 25.6739 5.34351 24.9815 6.36948L26.2752 7.19211C26.7489 6.48964 27.3958 6.13841 28.2157 6.13841C28.735 6.13841 29.2361 6.33251 29.6279 6.68375C30.0105 7.01649 30.2292 7.49713 30.2292 8.0055V8.34749C29.6643 8.03322 28.9537 7.86685 28.0791 7.86685C27.0587 7.86685 26.2387 8.10717 25.6283 8.59705C25.0179 9.08693 24.7082 9.73394 24.7082 10.5566C24.6899 11.3052 25.0088 12.017 25.5737 12.4976C26.1476 13.0152 26.8765 13.274 27.7329 13.274C28.7441 13.274 29.5459 12.8211 30.1563 11.9153H30.2201V13.0152H31.6231V8.12565C31.6231 7.09968 31.3133 6.2863 30.6847 5.70399ZM26.7036 11.5548C26.4029 11.333 26.2207 10.9725 26.2207 10.5843C26.2207 10.1499 26.4211 9.78943 26.813 9.5029C27.2139 9.21637 27.7151 9.06848 28.3073 9.06848C29.1274 9.05924 29.7653 9.2441 30.2209 9.61382C30.2209 10.2423 29.9748 10.7877 29.4919 11.2498C29.0545 11.6935 28.4622 11.9431 27.8426 11.9431C27.4326 11.9523 27.0317 11.8137 26.7036 11.5548ZM34.7754 16.4998L39.6769 5.0847H38.0825L35.814 10.7784H35.7867L33.4635 5.0847H31.8691L35.0851 12.5068L33.263 16.4998H34.7754Z" fill="white"/>
<path d="M13.6767 7.30309C13.6767 6.85018 13.6403 6.39728 13.5674 5.95361H7.38135V8.51392H10.9254C10.7796 9.33655 10.3058 10.076 9.61344 10.5381V12.2019H11.7271C12.9661 11.0465 13.6767 9.33655 13.6767 7.30309Z" fill="#4285F4"/>
<path d="M7.38153 13.8101C9.14898 13.8101 10.6431 13.2185 11.7273 12.2018L9.61362 10.5381C9.02143 10.9448 8.26525 11.1758 7.38153 11.1758C5.66874 11.1758 4.22016 10.002 3.70086 8.43066H1.52344V10.1499C2.63493 12.3959 4.90346 13.8101 7.38153 13.8101Z" fill="#34A853"/>
<path d="M3.70101 8.43094C3.42765 7.60831 3.42765 6.71174 3.70101 5.87988V4.16992H1.52324C0.584702 6.04625 0.584702 8.26457 1.52324 10.1409L3.70101 8.43094Z" fill="#FBBC04"/>
<path d="M7.38153 3.13466C8.31992 3.11617 9.22186 3.47665 9.89605 4.1329L11.7728 2.22884C10.5793 1.1012 9.01232 0.481916 7.38153 0.500402C4.90346 0.500402 2.63493 1.92382 1.52344 4.16987L3.70086 5.88907C4.22016 4.30852 5.66874 3.13466 7.38153 3.13466Z" fill="#EA4335"/>
</svg>
