<svg width="39" height="17" viewBox="0 0 39 17" fill="none" xmlns="http://www.w3.org/2000/svg">
<path fill-rule="evenodd" clip-rule="evenodd" d="M5.46233 3.46861C6.18421 3.52951 6.90609 3.10325 7.35727 2.56281C7.80093 2.00714 8.09419 1.26118 8.019 0.5C7.37983 0.530447 6.59027 0.926262 6.13909 1.48193C5.72551 1.96147 5.37209 2.73788 5.46233 3.46861ZM14.0497 13.2727V1.40588H18.4487C20.7196 1.40588 22.3063 2.98914 22.3063 5.30313C22.3063 7.61713 20.6895 9.21561 18.3885 9.21561H15.8695V13.2727H14.0497ZM8.0114 3.61321C7.37543 3.57616 6.79514 3.80682 6.32643 3.99313C6.0248 4.11302 5.76937 4.21455 5.57505 4.21455C5.35697 4.21455 5.091 4.10759 4.79238 3.9875C4.40108 3.83015 3.95372 3.65025 3.48459 3.65889C2.40929 3.67411 1.40918 4.29067 0.860244 5.27259C-0.267699 7.23644 0.566979 10.1442 1.65732 11.7426C2.19122 12.5343 2.83038 13.402 3.67258 13.3716C4.0431 13.3574 4.30963 13.2429 4.58546 13.1245C4.90301 12.9881 5.2329 12.8464 5.748 12.8464C6.24523 12.8464 6.56069 12.9844 6.86352 13.1168C7.15145 13.2428 7.42796 13.3638 7.83845 13.3564C8.71073 13.3411 9.25966 12.5647 9.79355 11.7731C10.3697 10.9235 10.6229 10.0943 10.6613 9.96842L10.6658 9.95387C10.6649 9.95293 10.6578 9.94963 10.6452 9.94382C10.4526 9.85456 8.98051 9.17236 8.96639 7.34301C8.95222 5.80753 10.134 5.02957 10.3201 4.9071L10.3201 4.90709L10.3202 4.90702C10.3315 4.89961 10.339 4.89461 10.3425 4.892C9.59052 3.76545 8.41746 3.64366 8.0114 3.61321ZM25.63 13.3639C26.773 13.3639 27.8333 12.7778 28.3145 11.8492H28.3521V13.2726H30.0365V7.36582C30.0365 5.65316 28.683 4.54944 26.6001 4.54944C24.6675 4.54944 23.2388 5.66838 23.1861 7.20597H24.8254C24.9608 6.47523 25.63 5.99569 26.5474 5.99569C27.6603 5.99569 28.2844 6.5209 28.2844 7.48761V8.14222L26.0135 8.27924C23.9005 8.40864 22.7575 9.284 22.7575 10.8064C22.7575 12.3439 23.9381 13.3639 25.63 13.3639ZM26.1187 11.9559C25.1486 11.9559 24.532 11.4839 24.532 10.7608C24.532 10.0149 25.1261 9.581 26.2615 9.51249L28.2843 9.38309V10.0529C28.2843 11.1643 27.3519 11.9559 26.1187 11.9559ZM35.6235 13.7369C34.8941 15.8149 34.0594 16.5 32.2848 16.5C32.1494 16.5 31.6983 16.4848 31.593 16.4543V15.0309C31.7058 15.0461 31.984 15.0614 32.1269 15.0614C32.9315 15.0614 33.3827 14.7188 33.6609 13.8282L33.8263 13.303L30.7433 4.66361H32.6457L34.7888 11.6741H34.8264L36.9695 4.66361H38.8193L35.6235 13.7369ZM15.8693 2.95854H17.9673C19.5464 2.95854 20.4488 3.81106 20.4488 5.31059C20.4488 6.81012 19.5464 7.67026 17.9598 7.67026H15.8693V2.95854Z" fill="white"/>
</svg>
