<svg width="49" height="17" viewBox="0 0 49 17" fill="none" xmlns="http://www.w3.org/2000/svg">
<g clip-path="url(#clip0_27_91266)">
<path d="M31.2273 0.556152C27.8645 0.556152 24.8594 2.30083 24.8594 5.52426C24.8594 9.22092 30.1891 9.47625 30.1891 11.3333C30.1891 12.1153 29.2938 12.8153 27.7648 12.8153C25.5948 12.8153 23.973 11.8372 23.973 11.8372L23.279 15.09C23.279 15.09 25.1474 15.9162 27.6279 15.9162C31.3044 15.9162 34.1975 14.0858 34.1975 10.8073C34.1975 6.90108 28.8456 6.65334 28.8456 4.92964C28.8456 4.3171 29.5805 3.64594 31.1051 3.64594C32.8254 3.64594 34.2289 4.35725 34.2289 4.35725L34.9081 1.2156C34.9081 1.2156 33.3809 0.556152 31.2273 0.556152ZM0.461309 0.793258L0.379883 1.26747C0.379883 1.26747 1.7946 1.52664 3.06878 2.04362C4.7094 2.63645 4.82627 2.98156 5.10257 4.05346L8.11347 15.6716H12.1496L18.3676 0.793258H14.3407L10.3453 10.9091L8.71491 2.33445C8.56539 1.35308 7.80803 0.793258 6.88098 0.793258H0.461309ZM19.9868 0.793258L16.8279 15.6716H20.6678L23.8157 0.793258H19.9868ZM41.4036 0.793258C40.4777 0.793258 39.9871 1.28948 39.6271 2.15662L34.0013 15.6716H38.0282L38.8073 13.4191H43.7132L44.1869 15.6716H47.74L44.6403 0.793258H41.4036ZM41.9273 4.81294L43.121 10.396H39.9232L41.9273 4.81294Z" fill="white"/>
</g>
<defs>
<clipPath id="clip0_27_91266">
<rect width="48" height="16" fill="white" transform="translate(0.32373 0.5)"/>
</clipPath>
</defs>
</svg>
