<svg width="27" height="17" viewBox="0 0 27 17" fill="none" xmlns="http://www.w3.org/2000/svg">
<g clip-path="url(#clip0_27_91267)">
<path fill-rule="evenodd" clip-rule="evenodd" d="M9.7251 14.7893H16.6937V2.21045H9.7251V14.7893Z" fill="#FF5F00"/>
<path fill-rule="evenodd" clip-rule="evenodd" d="M10.1676 8.49982C10.1676 5.94788 11.3572 3.67504 13.2095 2.21041C11.8547 1.1391 10.1455 0.5 8.28766 0.5C3.88948 0.5 0.324219 4.0817 0.324219 8.49982C0.324219 12.9179 3.88948 16.4996 8.28766 16.4996C10.1455 16.4996 11.8547 15.8605 13.2095 14.7892C11.3572 13.3244 10.1676 11.0518 10.1676 8.49982Z" fill="#EB001B"/>
<path fill-rule="evenodd" clip-rule="evenodd" d="M25.8461 13.457V13.1466H25.7653L25.6726 13.3602L25.5797 13.1466H25.499V13.457H25.5558V13.2228L25.643 13.4248H25.7021L25.7892 13.2224V13.457H25.8461ZM25.3348 13.457V13.1995H25.4384V13.147H25.1751V13.1995H25.2784V13.457H25.3348ZM26.0947 8.49982C26.0947 12.9179 22.5292 16.4996 18.1313 16.4996C16.2734 16.4996 14.564 15.8605 13.2095 14.7892C15.0618 13.3246 16.2513 11.0518 16.2513 8.49982C16.2513 5.9481 15.0618 3.67526 13.2095 2.21041C14.564 1.1391 16.2734 0.5 18.1313 0.5C22.5292 0.5 26.0947 4.0817 26.0947 8.49982Z" fill="#F79E1B"/>
</g>
<defs>
<clipPath id="clip0_27_91267">
<rect width="25.9995" height="16" fill="white" transform="translate(0.32373 0.5)"/>
</clipPath>
</defs>
</svg>
